<svg width="20" height="30" viewBox="0 0 20 30" fill="none" xmlns="http://www.w3.org/2000/svg">
<path d="M9.55812 29.8169L0.18312 20.4419C-0.0610401 20.1977 -0.0610401 19.8022 0.18312 19.5581C0.42728 19.314 0.822788 19.314 1.06689 19.5581L9.37502 27.8663L9.37502 0.62502C9.37502 0.279551 9.65457 0 10 0C10.3455 0 10.6251 0.279551 10.6251 0.62502L10.6251 27.8663L18.9331 19.5581C19.1773 19.314 19.5728 19.314 19.8169 19.5581C19.9389 19.6802 20 19.8401 20 20C20 20.1599 19.9389 20.3198 19.8169 20.442L10.4419 29.817C10.1978 30.0611 9.80228 30.0611 9.55812 29.8169Z" fill="#FF4500"/>
</svg>
