<svg width="27" height="50" viewBox="0 0 27 50" fill="none" xmlns="http://www.w3.org/2000/svg">
<path d="M1.6423 1.62948L1.64232 1.62945C1.80305 1.46303 2.06697 1.45647 2.23574 1.61326L25.3112 24.6887C25.4766 24.8541 25.4767 25.1224 25.3111 25.2881L2.22329 48.3759C2.22326 48.3759 2.22324 48.3759 2.22321 48.376C2.05775 48.5413 1.78951 48.5414 1.62386 48.3758C1.45867 48.2103 1.45872 47.9422 1.62402 47.7768C1.62405 47.7767 1.62408 47.7767 1.6241 47.7767L23.3518 26.049L24.4125 24.9883L23.3518 23.9277L1.63649 2.21238C1.48366 2.04793 1.48546 1.79186 1.6423 1.62948Z" fill="black" stroke="#CC3700" stroke-width="3"/>
</svg>
