<svg width="84" height="84" viewBox="0 0 84 84" fill="none" xmlns="http://www.w3.org/2000/svg">
<g clip-path="url(#clip0)">
<path d="M83.9838 20.7162C83.8857 19.8127 83.3242 19.0131 82.485 18.6215L43.11 0.246461C42.4064 -0.0818281 41.5936 -0.0818281 40.89 0.246461L1.51495 18.6215C0.675938 19.0131 0.114516 19.8126 0.0162422 20.7162C0.0142734 20.7349 0 20.9864 0 21.0002V65.6252C0 66.6985 0.653461 67.6638 1.65014 68.0624L41.0251 83.8124C41.338 83.9375 41.6691 84.0002 42 84.0002C42.3309 84.0002 42.662 83.9377 42.9749 83.8124L82.3499 68.0624C83.3465 67.6638 84 66.6985 84 65.6252V21.0002C84 20.9864 83.9857 20.7349 83.9838 20.7162ZM41.1542 5.91659C41.6903 5.66641 42.3097 5.66641 42.8458 5.91659L70.5842 18.8612C72.1713 19.6018 72.1073 21.8801 70.4812 22.5305L62.917 25.5563C62.4268 25.7523 61.8791 25.7467 61.3931 25.5405L32.8994 13.4526C31.3053 12.7763 31.2655 10.5314 32.8347 9.7991L41.1542 5.91659ZM21.5564 15.0624C22.07 14.8226 22.6613 14.8122 23.1832 15.0336L50.7644 26.7344C52.408 27.4316 52.3838 29.7695 50.7261 30.4325L42.7428 33.6258C42.266 33.8165 41.734 33.8165 41.2572 33.6258L13.5188 22.5305C11.8927 21.8801 11.8288 19.6018 13.4159 18.8612L21.5564 15.0624ZM5.25 27.8314C5.25 26.4165 6.67905 25.4489 7.99278 25.9744L38.1178 38.0244C38.8771 38.3282 39.375 39.0636 39.375 39.8814V74.5438C39.375 75.9588 37.9459 76.9263 36.6322 76.4008L6.50722 64.3508C5.7479 64.0471 5.25 63.3117 5.25 62.4938V27.8314ZM47.3678 76.4009C46.0541 76.9265 44.625 75.9589 44.625 74.544V39.8814C44.625 39.0636 45.1229 38.3282 45.8822 38.0244L76.0072 25.9744C77.321 25.4489 78.75 26.4165 78.75 27.8314V62.4939C78.75 63.3117 78.2521 64.0471 77.4928 64.3508L47.3678 76.4009Z" fill="white" fill-opacity="0.74"/>
</g>
<defs>
<clipPath id="clip0">
<rect width="84" height="84" fill="white"/>
</clipPath>
</defs>
</svg>
