<svg width="84" height="85" viewBox="0 0 84 85" fill="none" xmlns="http://www.w3.org/2000/svg">
<g id="Nova Poshta (&#208;&#157;&#208;&#190;&#208;&#178;&#208;&#176;&#209;&#143; &#208;&#159;&#208;&#190;&#209;&#136;&#209;&#130;&#208;&#176;)">
<g id="Nova Poshta (&#208;&#157;&#208;&#190;&#208;&#178;&#208;&#176;&#209;&#143; &#208;&#159;&#208;&#190;&#209;&#136;&#209;&#130;&#208;&#176;)_2">
<g id="Group">
<path id="path3461" fill-rule="evenodd" clip-rule="evenodd" d="M67.309 25.9122C67.563 25.8323 67.8972 25.9921 68.2315 26.4313C68.2315 26.4313 68.2315 26.4313 83.3391 41.1532C84.2215 42.0317 84.2215 43.3628 83.3391 44.015C83.3391 44.015 83.3391 44.015 68.2315 58.9632C67.8972 59.4024 67.563 59.5089 67.309 59.3758C67.055 59.2427 66.8945 58.8567 66.8945 58.2976V26.8706C66.8945 26.3249 67.055 25.9921 67.309 25.9122Z" fill="white" fill-opacity="0.74"/>
<path id="path3463" fill-rule="evenodd" clip-rule="evenodd" d="M41.4658 1.38025H42.5354L43.5648 1.8062C43.5648 1.8062 43.5648 1.8062 59.1137 17.1936C59.7822 18.0721 59.5549 18.7377 58.4452 18.7377C58.4452 18.7377 58.4452 18.7377 52.0011 18.7377C50.8914 18.7377 50.009 19.6162 50.009 20.721C50.009 20.721 50.009 20.721 50.009 32.1417C50.009 33.2465 49.1132 34.1251 47.7763 34.1251C47.7763 34.1251 47.7763 34.1251 36.4522 34.1251C35.3426 34.1251 34.4468 33.2465 34.4468 32.1417C34.4468 32.1417 34.4468 32.1417 34.4468 20.721C34.4468 19.6162 33.5644 18.7377 32.4414 18.7377H25.556C24.4463 18.7377 24.2191 18.0721 24.8875 17.1936C24.8875 17.1936 24.8875 17.1936 40.4497 1.8062L41.4658 1.38025Z" fill="white" fill-opacity="0.74"/>
<path id="path3465" fill-rule="evenodd" clip-rule="evenodd" d="M17.1064 25.5795C17.3871 25.7126 17.5609 26.0986 17.5609 26.6577V58.7369C17.5609 59.296 17.3871 59.6288 17.1064 59.7353C16.839 59.8418 16.4513 59.7353 15.9967 59.4025C15.9967 59.4025 15.9967 59.4025 0.661794 44.0151C-0.220598 43.3629 -0.220598 42.0318 0.661794 41.1532C0.661794 41.1532 0.661796 41.1532 15.9967 25.9921C16.4513 25.5529 16.839 25.4464 17.1064 25.5795Z" fill="white" fill-opacity="0.74"/>
<path id="path3467" fill-rule="evenodd" clip-rule="evenodd" d="M36.4505 50.8302C36.4505 50.8302 36.4505 50.8302 47.7745 50.8302C49.1115 50.8302 50.0073 51.7088 50.0073 52.8136C50.0073 52.8136 50.0073 52.8136 50.0073 64.8999C50.0073 66.2176 50.8897 67.0962 51.9993 67.0962H58.0023C59.112 67.0962 59.5531 67.7484 58.6708 68.4139C58.6708 68.4139 58.6708 68.4139 43.5631 83.575C43.1086 84.0143 42.5604 84.2406 41.9989 84.2406C41.4507 84.2406 40.8892 84.0143 40.448 83.575C40.448 83.575 40.448 83.575 25.3404 68.4139C24.4446 67.7484 24.8858 67.0962 25.9955 67.0962C25.9955 67.0962 25.9955 67.0962 32.4396 67.0962C33.5627 67.0962 34.4451 66.2176 34.4451 64.8999C34.4451 64.8999 34.4451 64.8999 34.4451 52.8136C34.4451 51.7088 35.3408 50.8302 36.4505 50.8302Z" fill="white" fill-opacity="0.74"/>
</g>
</g>
</g>
</svg>
