<svg width="24" height="24" viewBox="0 0 24 24" fill="none" xmlns="http://www.w3.org/2000/svg">
<g clip-path="url(#clip0)">
<path d="M12.004 5.83789C8.60101 5.83789 5.84601 8.59589 5.84601 11.9959C5.84601 15.3989 8.60401 18.1539 12.004 18.1539C15.407 18.1539 18.162 15.3959 18.162 11.9959C18.162 8.59289 15.404 5.83789 12.004 5.83789ZM12.004 15.9929C9.79501 15.9929 8.00701 14.2039 8.00701 11.9959C8.00701 9.78789 9.79601 7.99889 12.004 7.99889C14.212 7.99889 16.001 9.78789 16.001 11.9959C16.002 14.2039 14.213 15.9929 12.004 15.9929Z" fill="#474849"/>
<path d="M16.948 0.0758749C14.74 -0.0271251 9.27098 -0.0221251 7.06098 0.0758749C5.11898 0.166875 3.40598 0.635875 2.02498 2.01688C-0.283017 4.32488 0.0119831 7.43488 0.0119831 11.9959C0.0119831 16.6639 -0.248017 19.7019 2.02498 21.9749C4.34198 24.2909 7.49698 23.9879 12.004 23.9879C16.628 23.9879 18.224 23.9909 19.859 23.3579C22.082 22.4949 23.76 20.5079 23.924 16.9389C24.028 14.7299 24.022 9.26188 23.924 7.05188C23.726 2.83888 21.465 0.283875 16.948 0.0758749ZM20.443 20.4479C18.93 21.9609 16.831 21.8259 11.975 21.8259C6.97498 21.8259 4.96998 21.8999 3.50698 20.4329C1.82198 18.7559 2.12698 16.0629 2.12698 11.9799C2.12698 6.45488 1.55998 2.47588 7.10498 2.19187C8.37898 2.14687 8.75398 2.13188 11.961 2.13188L12.006 2.16188C17.335 2.16188 21.516 1.60387 21.767 7.14788C21.824 8.41288 21.837 8.79288 21.837 11.9949C21.836 16.9369 21.93 18.9539 20.443 20.4479Z" fill="#474849"/>
<path d="M18.406 7.03424C19.2007 7.03424 19.845 6.38998 19.845 5.59525C19.845 4.80051 19.2007 4.15625 18.406 4.15625C17.6113 4.15625 16.967 4.80051 16.967 5.59525C16.967 6.38998 17.6113 7.03424 18.406 7.03424Z" fill="#474849"/>
</g>
<defs>
<clipPath id="clip0">
<rect width="24" height="24" fill="white"/>
</clipPath>
</defs>
</svg>
