<svg width="155" height="158" viewBox="0 0 155 158" fill="none" xmlns="http://www.w3.org/2000/svg">
<path d="M152.76 129.6V131.6H154.76V129.6H152.76ZM132.3 129.6V127.6H130.3V129.6H132.3ZM132.3 156V158H134.3V156H132.3ZM81.92 156H79.92V158H81.92V156ZM81.92 129.6H83.92V127.6H81.92V129.6ZM2.06 129.6H0.0600004V131.6H2.06V129.6ZM2.06 96.6L0.414377 95.4634L0.0600004 95.9764V96.6H2.06ZM67.4 1.99999V-1.04904e-05H66.3507L65.7544 0.863361L67.4 1.99999ZM120.64 1.99999L122.305 3.10745L124.372 -1.04904e-05H120.64V1.99999ZM62.56 89.34L60.8946 88.2325L58.8282 91.34H62.56V89.34ZM83.46 89.34V91.34H85.46V89.34H83.46ZM83.46 65.8V63.8H81.46V65.8H83.46ZM132.3 65.8H134.3V63.8H132.3V65.8ZM132.3 89.34H130.3V91.34H132.3V89.34ZM152.76 89.34H154.76V87.34H152.76V89.34ZM152.76 127.6H132.3V131.6H152.76V127.6ZM130.3 129.6V156H134.3V129.6H130.3ZM132.3 154H81.92V158H132.3V154ZM83.92 156V129.6H79.92V156H83.92ZM81.92 127.6H2.06V131.6H81.92V127.6ZM4.06 129.6V96.6H0.0600004V129.6H4.06ZM3.70562 97.7366L69.0456 3.13662L65.7544 0.863361L0.414377 95.4634L3.70562 97.7366ZM67.4 3.99999H120.64V-1.04904e-05H67.4V3.99999ZM118.975 0.892526L60.8946 88.2325L64.2254 90.4475L122.305 3.10745L118.975 0.892526ZM62.56 91.34H83.46V87.34H62.56V91.34ZM85.46 89.34V65.8H81.46V89.34H85.46ZM83.46 67.8H132.3V63.8H83.46V67.8ZM130.3 65.8V89.34H134.3V65.8H130.3ZM132.3 91.34H152.76V87.34H132.3V91.34ZM150.76 89.34V129.6H154.76V89.34H150.76Z" fill="#FF4500"/>
</svg>
