<svg width="16" height="24" viewBox="0 0 16 24" fill="none" xmlns="http://www.w3.org/2000/svg">
<path d="M8.00002 0C3.58889 0 0 3.58889 0 8.00002C0 9.32423 0.331078 10.6372 0.960469 11.8018L7.56253 23.7422C7.65042 23.9014 7.81791 24 8.00002 24C8.18213 24 8.34961 23.9014 8.4375 23.7422L15.042 11.7978C15.669 10.6372 16 9.32419 16 7.99997C16 3.58889 12.4111 0 8.00002 0ZM14.1645 11.3179L8.00002 22.4668L1.83792 11.3223C1.28958 10.3076 1.00003 9.15872 1.00003 8.00002C1.00003 4.14014 4.14019 1.00003 8.00002 1.00003C11.8598 1.00003 15 4.14019 15 8.00002C15 9.15867 14.7105 10.3076 14.1645 11.3179Z" fill="#FF4500"/>
<path d="M7.99998 3.99998C5.79442 3.99998 4 5.7944 4 7.99996C4 10.2056 5.79442 12 7.99998 12C10.2055 12 12 10.2056 12 8.00001C12 5.79445 10.2055 3.99998 7.99998 3.99998ZM7.99998 11C6.34567 11 4.99998 9.65432 4.99998 8.00001C4.99998 6.3457 6.34567 5.00001 7.99998 5.00001C9.65429 5.00001 11 6.3457 11 8.00001C11 9.65427 9.65429 11 7.99998 11Z" fill="#FF4500"/>
</svg>
