<svg width="11" height="24" viewBox="0 0 11 24" fill="none" xmlns="http://www.w3.org/2000/svg">
<path d="M6.1 2.53605V2.93492L6.4889 3.02355C8.66871 3.52034 10.3 5.47402 10.3 7.8C10.3 8.18658 9.98661 8.5 9.6 8.5C9.21339 8.5 8.9 8.18658 8.9 7.8C8.9 5.86966 7.33034 4.3 5.4 4.3C3.46966 4.3 1.9 5.86966 1.9 7.8C1.9 9.73034 3.46966 11.3 5.4 11.3C8.10143 11.3 10.3 13.4986 10.3 16.2C10.3 18.526 8.66871 20.4797 6.4889 20.9764L6.1 21.0651V21.4639V22.8C6.1 23.1866 5.78661 23.5 5.4 23.5C5.01339 23.5 4.7 23.1866 4.7 22.8V21.4639V21.0651L4.3111 20.9764C2.13129 20.4797 0.5 18.526 0.5 16.2C0.5 15.8134 0.813388 15.5 1.2 15.5C1.58661 15.5 1.9 15.8134 1.9 16.2C1.9 18.1303 3.46966 19.7 5.4 19.7C7.33034 19.7 8.9 18.1303 8.9 16.2C8.9 14.2697 7.33034 12.7 5.4 12.7C2.69857 12.7 0.5 10.5014 0.5 7.8C0.5 5.47402 2.13129 3.52034 4.3111 3.02355L4.7 2.93492V2.53605V1.2C4.7 0.813422 5.01339 0.5 5.4 0.5C5.78661 0.5 6.1 0.813422 6.1 1.2V2.53605Z" stroke="#FF4500"/>
</svg>
