<svg width="0" height="0" class="hidden">
  <symbol viewBox="0 0 24 24" xmlns="http://www.w3.org/2000/svg" id="footer-insta-svg">
    <g clip-path="url(#clip0)">
      <path d="M12.004 5.838a6.157 6.157 0 0 0-6.158 6.158 6.157 6.157 0 0 0 6.158 6.158 6.157 6.157 0 0 0 6.158-6.158 6.157 6.157 0 0 0-6.158-6.158zm0 10.155a3.996 3.996 0 1 1 3.997-3.997 3.995 3.995 0 0 1-3.997 3.997z"></path>
      <path d="M16.948.076c-2.208-.103-7.677-.098-9.887 0-1.942.09-3.655.56-5.036 1.94C-.283 4.326.012 7.436.012 11.997c0 4.668-.26 7.706 2.013 9.979 2.317 2.316 5.472 2.013 9.979 2.013 4.624 0 6.22.003 7.855-.63 2.223-.863 3.901-2.85 4.065-6.42.104-2.208.098-7.676 0-9.886C23.726 2.84 21.465.285 16.948.077zm3.495 20.372c-1.513 1.513-3.612 1.378-8.468 1.378-5 0-7.005.074-8.468-1.393-1.685-1.677-1.38-4.37-1.38-8.453 0-5.525-.567-9.504 4.978-9.788 1.274-.045 1.649-.06 4.856-.06l.045.03c5.329 0 9.51-.558 9.761 4.986.057 1.265.07 1.645.07 4.847-.001 4.942.093 6.959-1.394 8.453z"></path>
      <path d="M18.406 7.034a1.439 1.439 0 1 0 0-2.878 1.439 1.439 0 0 0 0 2.878z"></path>
    </g>
    <defs>
      <clipPath id="clip0">
        <path d="M0 0h24v24H0z"></path>
      </clipPath>
    </defs>
  </symbol>

  <symbol viewBox="0 0 24 24" xmlns="http://www.w3.org/2000/svg" id="footer-facebook-svg">
    <path d="M15.81 3.985h2.191V.169C17.623.117 16.323 0 14.809 0 11.65 0 9.486 1.987 9.486 5.639V9H6v4.266h3.486V24h4.274V13.267h3.345l.531-4.266h-3.877V6.062c.001-1.233.333-2.077 2.051-2.077z"></path>
  </symbol>

  <symbol viewBox="0 0 24 24" xmlns="http://www.w3.org/2000/svg" id="footer-youtube-svg">
    <g clip-path="url(#clip0)">
      <path d="M9.939 7.856a.75.75 0 0 0-1.134.644v7c0 .585.638.939 1.134.645l5.869-3.495a.751.751 0 0 0 .001-1.289l-5.87-3.505zm.366 6.325v-4.36l3.655 2.183-3.655 2.177z"></path>
      <path d="M19.904 3.271c-4.653-.69-11.153-.69-15.808 0C2.234 3.547.767 5.01.447 6.907c-.596 3.523-.596 6.664 0 10.186.32 1.9 1.787 3.36 3.649 3.636 2.332.346 5.124.52 7.915.52 2.786 0 5.571-.173 7.894-.519 1.86-.276 3.326-1.737 3.648-3.636.596-3.523.596-6.665 0-10.188-.32-1.897-1.787-3.359-3.649-3.635zm2.17 13.573c-.213 1.256-1.173 2.222-2.39 2.402-4.518.671-10.838.671-15.368 0-1.218-.182-2.179-1.147-2.391-2.403-.574-3.394-.574-6.29 0-9.687.213-1.256 1.173-2.22 2.392-2.402 2.262-.335 4.973-.503 7.682-.503 2.711 0 5.422.168 7.684.503 1.218.181 2.179 1.146 2.391 2.402.574 3.396.574 6.293 0 9.688z"></path>
    </g>
    <defs>
      <clipPath id="clip0">
        <path d="M0 0h24v24H0z"></path>
      </clipPath>
    </defs>
  </symbol>

  <symbol viewBox="0 0 70 70" xmlns="http://www.w3.org/2000/svg" id="button-play">
    <path fill-rule="evenodd" clip-rule="evenodd" d="M66 35C66 52.1208 52.1208 66 35 66C17.8792 66 4 52.1208 4 35C4 17.8792 17.8792 4 35 4C52.1208 4 66 17.8792 66 35ZM70 35C70 54.33 54.33 70 35 70C15.67 70 0 54.33 0 35C0 15.67 15.67 0 35 0C54.33 0 70 15.67 70 35ZM30.5 44.5263L44 35L30.5 25.4737V44.5263Z"/>
  </symbol> 

  <symbol viewBox="0 0 20 20" xmlns="http://www.w3.org/2000/svg" id="phones-svg">
    <g clip-path="url(#clip0)">
      <path d="M18.395 13.128a11.37 11.37 0 0 1-3.566-.568c-.568-.194-1.215-.044-1.585.334l-2.249 1.697C8.387 13.2 6.781 11.593 5.407 9.005l1.648-2.19a1.617 1.617 0 0 0 .398-1.638 11.373 11.373 0 0 1-.57-3.572C6.883.72 6.163 0 5.278 0H1.605C.72 0 0 .72 0 1.605 0 11.748 8.252 20 18.395 20 19.28 20 20 19.28 20 18.395v-3.662c0-.885-.72-1.605-1.605-1.605zm.494 5.267a.494.494 0 0 1-.494.494c-9.53 0-17.284-7.753-17.284-17.284 0-.272.222-.494.494-.494h3.673c.272 0 .494.222.494.494 0 1.344.21 2.663.623 3.912.058.185.011.375-.175.57L4.31 8.616a.556.556 0 0 0-.052.586c1.559 3.064 3.453 4.958 6.538 6.54a.553.553 0 0 0 .588-.052l2.587-1.96a.49.49 0 0 1 .504-.117 12.49 12.49 0 0 0 3.92.626c.273 0 .494.221.494.494v3.662z"
        ></path>
    </g>
    <defs>
      <clipPath id="clip0">
        <path d="M0 0h20v20H0z"></path>
      </clipPath>
    </defs>
  </symbol>

  <symbol viewBox="0 0 24 24" xmlns="http://www.w3.org/2000/svg" id="play-btn-mob">
    <g clip-path="url(#clip0)">
    <path d="M23.5055 6.23876C23.2288 5.21063 22.4182 4.4002 21.3903 4.12335C19.5122 3.60938 11.9998 3.60938 11.9998 3.60938C11.9998 3.60938 4.48753 3.60938 2.60943 4.10376C1.60125 4.38043 0.770871 5.21081 0.4942 6.23876C0 8.11668 0 12.0113 0 12.0113C0 12.0113 0 15.9255 0.4942 17.7839C0.771054 18.8118 1.58148 19.6224 2.60961 19.8993C4.50731 20.4133 12 20.4133 12 20.4133C12 20.4133 19.5122 20.4133 21.3903 19.9189C22.4184 19.6422 23.2288 18.8316 23.5057 17.8037C23.9999 15.9255 23.9999 12.0311 23.9999 12.0311C23.9999 12.0311 24.0197 8.11668 23.5055 6.23876Z" fill="#FF0000"/>
    <path d="M9.60791 15.6094L15.8549 12.0114L9.60791 8.41333V15.6094Z" fill="#FDFDFD"/>
    </g>
    <defs>
    <clipPath id="clip0">
    <rect width="24" height="24" fill="white"/>
    </clipPath>
    </defs>
  </symbol>

  <symbol viewBox="0 0 100 10" xmlns="http://www.w3.org/2000/svg" id="arr-slider">
    <path d="M0.646446 4.35355C0.451187 4.15829 0.451187 3.84171 0.646446 3.64645L3.82843 0.464466C4.02369 0.269204 4.34027 0.269204 4.53554 0.464466C4.7308 0.659728 4.7308 0.976311 4.53554 1.17157L1.70711 4L4.53554 6.82843C4.7308 7.02369 4.7308 7.34027 4.53554 7.53553C4.34027 7.7308 4.02369 7.7308 3.82843 7.53553L0.646446 4.35355ZM101 4.5H1V3.5H101V4.5Z" fill="#FF4500"/>
  </symbol>

  <symbol viewBox="0 0 27 50" xmlns="http://www.w3.org/2000/svg" id="cases-review-arr">
    <path d="M1.6423 1.62948L1.64232 1.62945C1.80305 1.46303 2.06697 1.45647 2.23574 1.61326L25.3112 24.6887C25.4766 24.8541 25.4767 25.1224 25.3111 25.2881L2.22329 48.3759C2.22326 48.3759 2.22324 48.3759 2.22321 48.376C2.05775 48.5413 1.78951 48.5414 1.62386 48.3758C1.45867 48.2103 1.45872 47.9422 1.62402 47.7768C1.62405 47.7767 1.62408 47.7767 1.6241 47.7767L23.3518 26.049L24.4125 24.9883L23.3518 23.9277L1.63649 2.21238C1.48366 2.04793 1.48546 1.79186 1.6423 1.62948Z" fill="black" stroke="#CC3700" stroke-width="3"/>
  </symbol>

  <symbol viewBox="0 0 11 24" xmlns="http://www.w3.org/2000/svg" id="service-price">
    <path d="M6.1 2.53605V2.93492L6.4889 3.02355C8.66871 3.52034 10.3 5.47402 10.3 7.8C10.3 8.18658 9.98661 8.5 9.6 8.5C9.21339 8.5 8.9 8.18658 8.9 7.8C8.9 5.86966 7.33034 4.3 5.4 4.3C3.46966 4.3 1.9 5.86966 1.9 7.8C1.9 9.73034 3.46966 11.3 5.4 11.3C8.10143 11.3 10.3 13.4986 10.3 16.2C10.3 18.526 8.66871 20.4797 6.4889 20.9764L6.1 21.0651V21.4639V22.8C6.1 23.1866 5.78661 23.5 5.4 23.5C5.01339 23.5 4.7 23.1866 4.7 22.8V21.4639V21.0651L4.3111 20.9764C2.13129 20.4797 0.5 18.526 0.5 16.2C0.5 15.8134 0.813388 15.5 1.2 15.5C1.58661 15.5 1.9 15.8134 1.9 16.2C1.9 18.1303 3.46966 19.7 5.4 19.7C7.33034 19.7 8.9 18.1303 8.9 16.2C8.9 14.2697 7.33034 12.7 5.4 12.7C2.69857 12.7 0.5 10.5014 0.5 7.8C0.5 5.47402 2.13129 3.52034 4.3111 3.02355L4.7 2.93492V2.53605V1.2C4.7 0.813422 5.01339 0.5 5.4 0.5C5.78661 0.5 6.1 0.813422 6.1 1.2V2.53605Z" stroke="#FF4500"/>
  </symbol>

  <symbol viewBox="0 0 24 24" xmlns="http://www.w3.org/2000/svg" id="service-quantity">
    <g clip-path="url(#clip0)">
    <path d="M21.8906 5.67188H17.8264L17.3025 3.05236C17.1715 2.39733 16.5916 1.92188 15.9236 1.92188H8.07642C7.40845 1.92188 6.82847 2.39733 6.6975 3.05236L6.17358 5.67188H2.10938C0.946266 5.67188 0 6.61814 0 7.78125V19.9688C0 21.1319 0.946266 22.0781 2.10938 22.0781H21.8906C23.0537 22.0781 24 21.1319 24 19.9688V7.78125C24 6.61814 23.0537 5.67188 21.8906 5.67188ZM8.07642 3.32812H15.9236L16.3923 5.67188H7.60767L8.07642 3.32812ZM22.5938 19.9688C22.5938 20.3565 22.2783 20.6719 21.8906 20.6719H2.10938C1.72167 20.6719 1.40625 20.3565 1.40625 19.9688V7.78125C1.40625 7.39355 1.72167 7.07812 2.10938 7.07812H21.8906C22.2783 7.07812 22.5938 7.39355 22.5938 7.78125V19.9688Z" fill="#FF4500"/>
    <path d="M12 8.67188C9.13097 8.67188 6.79688 11.006 6.79688 13.875C6.79688 16.744 9.13097 19.0781 12 19.0781C14.869 19.0781 17.2031 16.744 17.2031 13.875C17.2031 11.006 14.869 8.67188 12 8.67188ZM12 17.6719C9.90637 17.6719 8.20312 15.9686 8.20312 13.875C8.20312 11.7814 9.90637 10.0781 12 10.0781C14.0936 10.0781 15.7969 11.7814 15.7969 13.875C15.7969 15.9686 14.0936 17.6719 12 17.6719Z" fill="#FF4500"/>
    <path d="M6 8.67188H3.75C3.36169 8.67188 3.04688 8.98669 3.04688 9.375C3.04688 9.76331 3.36169 10.0781 3.75 10.0781H6C6.38831 10.0781 6.70312 9.76331 6.70312 9.375C6.70312 8.98669 6.38831 8.67188 6 8.67188Z" fill="#FF4500"/>
    </g>
    <defs>
    <clipPath id="clip0">
    <rect width="24" height="24" fill="white"/>
    </clipPath>
    </defs>
  </symbol>

  <symbol viewBox="0 0 16 24" xmlns="http://www.w3.org/2000/svg" id="service-location">
    <path d="M8.00002 0C3.58889 0 0 3.58889 0 8.00002C0 9.32423 0.331078 10.6372 0.960469 11.8018L7.56253 23.7422C7.65042 23.9014 7.81791 24 8.00002 24C8.18213 24 8.34961 23.9014 8.4375 23.7422L15.042 11.7978C15.669 10.6372 16 9.32419 16 7.99997C16 3.58889 12.4111 0 8.00002 0ZM14.1645 11.3179L8.00002 22.4668L1.83792 11.3223C1.28958 10.3076 1.00003 9.15872 1.00003 8.00002C1.00003 4.14014 4.14019 1.00003 8.00002 1.00003C11.8598 1.00003 15 4.14019 15 8.00002C15 9.15867 14.7105 10.3076 14.1645 11.3179Z" fill="#FF4500"/>
    <path d="M7.99998 3.99998C5.79442 3.99998 4 5.7944 4 7.99996C4 10.2056 5.79442 12 7.99998 12C10.2055 12 12 10.2056 12 8.00001C12 5.79445 10.2055 3.99998 7.99998 3.99998ZM7.99998 11C6.34567 11 4.99998 9.65432 4.99998 8.00001C4.99998 6.3457 6.34567 5.00001 7.99998 5.00001C9.65429 5.00001 11 6.3457 11 8.00001C11 9.65427 9.65429 11 7.99998 11Z" fill="#FF4500"/>
  </symbol>

</svg>