<svg width="0" height="0" class="hidden">
  <symbol viewBox="0 0 24 24" xmlns="http://www.w3.org/2000/svg" id="footer-insta-svg">
    <g clip-path="url(#clip0)">
      <path d="M12.004 5.838a6.157 6.157 0 0 0-6.158 6.158 6.157 6.157 0 0 0 6.158 6.158 6.157 6.157 0 0 0 6.158-6.158 6.157 6.157 0 0 0-6.158-6.158zm0 10.155a3.996 3.996 0 1 1 3.997-3.997 3.995 3.995 0 0 1-3.997 3.997z"></path>
      <path d="M16.948.076c-2.208-.103-7.677-.098-9.887 0-1.942.09-3.655.56-5.036 1.94C-.283 4.326.012 7.436.012 11.997c0 4.668-.26 7.706 2.013 9.979 2.317 2.316 5.472 2.013 9.979 2.013 4.624 0 6.22.003 7.855-.63 2.223-.863 3.901-2.85 4.065-6.42.104-2.208.098-7.676 0-9.886C23.726 2.84 21.465.285 16.948.077zm3.495 20.372c-1.513 1.513-3.612 1.378-8.468 1.378-5 0-7.005.074-8.468-1.393-1.685-1.677-1.38-4.37-1.38-8.453 0-5.525-.567-9.504 4.978-9.788 1.274-.045 1.649-.06 4.856-.06l.045.03c5.329 0 9.51-.558 9.761 4.986.057 1.265.07 1.645.07 4.847-.001 4.942.093 6.959-1.394 8.453z"></path>
      <path d="M18.406 7.034a1.439 1.439 0 1 0 0-2.878 1.439 1.439 0 0 0 0 2.878z"></path>
    </g>
    <defs>
      <clipPath id="clip0">
        <path d="M0 0h24v24H0z"></path>
      </clipPath>
    </defs>
  </symbol>

  <symbol viewBox="0 0 24 24" xmlns="http://www.w3.org/2000/svg" id="footer-facebook-svg">
    <path d="M15.81 3.985h2.191V.169C17.623.117 16.323 0 14.809 0 11.65 0 9.486 1.987 9.486 5.639V9H6v4.266h3.486V24h4.274V13.267h3.345l.531-4.266h-3.877V6.062c.001-1.233.333-2.077 2.051-2.077z"></path>
  </symbol>

  <symbol viewBox="0 0 24 24" xmlns="http://www.w3.org/2000/svg" id="footer-youtube-svg">
    <g clip-path="url(#clip0)">
      <path d="M9.939 7.856a.75.75 0 0 0-1.134.644v7c0 .585.638.939 1.134.645l5.869-3.495a.751.751 0 0 0 .001-1.289l-5.87-3.505zm.366 6.325v-4.36l3.655 2.183-3.655 2.177z"></path>
      <path d="M19.904 3.271c-4.653-.69-11.153-.69-15.808 0C2.234 3.547.767 5.01.447 6.907c-.596 3.523-.596 6.664 0 10.186.32 1.9 1.787 3.36 3.649 3.636 2.332.346 5.124.52 7.915.52 2.786 0 5.571-.173 7.894-.519 1.86-.276 3.326-1.737 3.648-3.636.596-3.523.596-6.665 0-10.188-.32-1.897-1.787-3.359-3.649-3.635zm2.17 13.573c-.213 1.256-1.173 2.222-2.39 2.402-4.518.671-10.838.671-15.368 0-1.218-.182-2.179-1.147-2.391-2.403-.574-3.394-.574-6.29 0-9.687.213-1.256 1.173-2.22 2.392-2.402 2.262-.335 4.973-.503 7.682-.503 2.711 0 5.422.168 7.684.503 1.218.181 2.179 1.146 2.391 2.402.574 3.396.574 6.293 0 9.688z"></path>
    </g>
    <defs>
      <clipPath id="clip0">
        <path d="M0 0h24v24H0z"></path>
      </clipPath>
    </defs>
  </symbol>

  <symbol viewBox="0 0 70 70" xmlns="http://www.w3.org/2000/svg" id="button-play">
    <path fill-rule="evenodd" clip-rule="evenodd" d="M66 35C66 52.1208 52.1208 66 35 66C17.8792 66 4 52.1208 4 35C4 17.8792 17.8792 4 35 4C52.1208 4 66 17.8792 66 35ZM70 35C70 54.33 54.33 70 35 70C15.67 70 0 54.33 0 35C0 15.67 15.67 0 35 0C54.33 0 70 15.67 70 35ZM30.5 44.5263L44 35L30.5 25.4737V44.5263Z"/>
  </symbol> 

</svg>